<svg width="46.55" height="46.55" xmlns="http://www.w3.org/2000/svg">
 <defs>
  <style>.cls-1{fill:#e21a23;}.cls-2{fill:#fff;}</style>
 </defs>
 <title>Connect_logo_2019_RGB_white</title>
 <g>
  <title>background</title>
  <rect fill="none" id="canvas_background" height="48.55" width="48.55" y="-1" x="-1"/>
 </g>
 <g>
  <title>Layer 1</title>
  <rect id="svg_1" height="46.57" width="46.57" y="-0.01" class="cls-1"/>
  <polygon id="svg_2" points="15.38 15.05 14.67 7.53 12.13 15.05 9.65 15.05 6.99 7.51 6.44 15.05 3.8 15.05 4.98 3.75 8.21 3.75 11.04 11.53 13.69 3.75 16.92 3.75 18.18 15.05 15.38 15.05" class="cls-2"/>
  <path id="svg_3" d="m23.9,15.3a4.22,4.22 0 0 1 -4.4,-4.42a4.43,4.43 0 0 1 4.5,-4.48a4.26,4.26 0 0 1 3,1l-1,1.69a3,3 0 0 0 -1.58,-0.51a2.13,2.13 0 0 0 -2.2,2.25c0,1.34 0.66,2.29 2.05,2.29a3.77,3.77 0 0 0 1.9,-0.61l1,1.69a5.1,5.1 0 0 1 -3.3,1.1" class="cls-2"/>
  <polygon id="svg_4" points="10.34 42.77 10.34 38.04 6.58 38.04 6.58 42.77 3.8 42.77 3.8 31.47 6.58 31.47 6.58 35.79 10.34 35.79 10.34 31.47 13.13 31.47 13.13 42.77 10.34 42.77" class="cls-2"/>
  <path id="svg_5" d="m15.47,35.52l2.72,0l0,7.24l-2.72,0l0,-7.24zm1.38,-1.29a1.45,1.45 0 0 1 -1.44,-1.47a1.44,1.44 0 1 1 1.44,1.47" class="cls-2"/>
  <rect id="svg_6" height="11.29" width="2.58" y="31.47" x="20.52" class="cls-2"/>
  <rect id="svg_7" height="11.29" width="2.58" y="31.47" x="25.45" class="cls-2"/>
  <path id="svg_8" d="m8.88,29.09a5.55,5.55 0 0 1 -5.88,-5.85a5.73,5.73 0 0 1 6.09,-6a5.33,5.33 0 0 1 4,1.32l-1.2,1.79a4.51,4.51 0 0 0 -2.64,-0.81a3.3,3.3 0 0 0 -3.42,3.57c0,2.52 1.61,3.69 3.38,3.69a5.2,5.2 0 0 0 1.51,-0.2l0,-1.6l-2.1,0l0,-2l4.5,0l0,4.91a6.63,6.63 0 0 1 -4.24,1.24" class="cls-2"/>
  <polygon id="svg_9" points="40.56 28.6 37.8 28.6 36.43 23.41 35.17 28.6 32.52 28.6 30.11 20.2 32.68 20.2 34 25.62 35.39 20.2 37.68 20.2 39.07 25.62 40.34 20.2 42.81 20.2 40.56 28.6" class="cls-2"/>
  <path id="svg_10" d="m20.37,22.16a2.49,2.49 0 0 0 -2.17,1.16l0,5.31l-2.73,0l0,-8.44l2.25,0l0,1.12a3.71,3.71 0 0 1 2.81,-1.38l0.18,0l0.17,0l-0.51,2.23z" class="cls-2"/>
  <path id="svg_11" d="m26.51,24.72c-0.65,0 -1.84,0 -2.33,0.46a0.92,0.92 0 0 0 -0.29,0.71a1,1 0 0 0 1.05,1a2.8,2.8 0 0 0 1.57,-0.47l0,-1.7zm0.25,4l0,-0.72a3.64,3.64 0 0 1 -2.38,0.91a2.59,2.59 0 0 1 -2.74,-2.76c0,-2.66 3.76,-2.88 4.65,-2.88l0.18,0c0,-0.28 0.07,-0.79 -0.2,-1a1.49,1.49 0 0 0 -1,-0.27a5.23,5.23 0 0 0 -1.74,0.33c-0.16,0.05 -0.29,0.11 -0.39,0.15l-0.84,-1.65l0.43,-0.23a6.32,6.32 0 0 1 2.67,-0.6a4,4 0 0 1 2.93,1a3.58,3.58 0 0 1 0.67,2.73l0,4.94l-2.24,0.05z" class="cls-2"/>
  <path id="svg_13" d="m190.92,8a2.29,2.29 0 1 1 2.29,2.28a2.28,2.28 0 0 1 -2.29,-2.28zm0.3,0a2,2 0 1 0 2,-2a2,2 0 0 0 -2,2zm1.93,0.28l-0.47,0l0,1l-0.35,0l0,-2.59l1.07,0a0.79,0.79 0 0 1 0.83,0.79a0.77,0.77 0 0 1 -0.67,0.78l0.7,1l-0.43,0l-0.68,-0.98zm-0.47,-1.28l0,1l0.72,0a0.49,0.49 0 0 0 0,-1l-0.72,0z" class="cls-2"/>
 </g>
</svg>